<?xml version="1.0" encoding="utf-8"?>
<!-- Generator: Adobe Illustrator 22.0.0, SVG Export Plug-In . SVG Version: 6.00 Build 0)  -->
<svg version="1.1" id="Capa_1" xmlns="http://www.w3.org/2000/svg" xmlns:xlink="http://www.w3.org/1999/xlink" x="0px" y="0px"
	 viewBox="0 0 90 90" style="enable-background:new 0 0 90 90;" xml:space="preserve">
<path d="M78.6,1H11.7C5.4,1,0.3,6,0.3,12.2v66.4c0,6.2,5.1,11.2,11.4,11.2h66.9c6.3,0,11.4-5,11.4-11.3V12.3C90,6,84.9,1,78.6,1z
	 M74,31H61.9c-1.3,0-2.9,1.6-2.9,4v6h15v15H59v34H45V56H34V41h11v-5.8C45,25.1,52.6,16,61.9,16H74V31z"/>
</svg>
