<?xml version="1.0" encoding="utf-8"?>
<!-- Generator: Adobe Illustrator 22.0.0, SVG Export Plug-In . SVG Version: 6.00 Build 0)  -->
<svg version="1.1" id="Capa_1" xmlns="http://www.w3.org/2000/svg" xmlns:xlink="http://www.w3.org/1999/xlink" x="0px" y="0px"
	 viewBox="0 0 430.1 430.1" style="enable-background:new 0 0 430.1 430.1;" xml:space="preserve">
<style type="text/css">
	.st0{stroke:#606060;stroke-miterlimit:10;}
</style>
<path class="st0" d="M0,54.4v321.2C0,405.6,24.4,430,54.5,430h321c30.1,0,54.5-24.4,54.5-54.5v-321C430,24.4,405.6,0,375.5,0h-321
	C24.4,0,0,24.4,0,54.4z M130.4,360h-65V165.8h65V360z M166.3,165.8h65v27.5c8.6-13.2,24-32.1,58.5-32.1c42.8,0,74.8,27.7,74.8,87.4
	V360h-65V256.1c0-26.1-9.4-43.9-32.9-43.9c-18,0-28.6,12-33.3,23.6c-1.7,4.1-2.2,9.9-2.2,15.7V360h-65
	C166.3,360,167.2,184.1,166.3,165.8z M98.3,72.2c22.2,0,35.9,14.5,36.3,33.5c0,18.7-14.1,33.6-36.7,33.6h-0.4
	c-21.8,0-35.9-14.9-35.9-33.6C61.6,86.7,76.1,72.2,98.3,72.2z"/>
</svg>
